<svg width="17" height="20" viewBox="0 0 17 20" fill="none" xmlns="http://www.w3.org/2000/svg">
<path d="M8.12107 0.593804C8.15232 0.777397 8.74998 4.2852 8.74998 5.62504C8.74998 7.668 7.66404 9.12503 6.05858 9.71097L6.56248 19.0117C6.58983 19.5469 6.16405 20 5.62498 20H3.12499C2.58984 20 2.16015 19.5508 2.18749 19.0117L2.6914 9.71097C1.08203 9.12503 0 7.6641 0 5.62504C0 4.28129 0.597655 0.777397 0.628905 0.593804C0.753904 -0.199162 2.39843 -0.210881 2.49999 0.636773V6.15238C2.55077 6.28519 3.08984 6.27738 3.12499 6.15238C3.17968 5.1641 3.43358 0.714898 3.43749 0.613335C3.5664 -0.199162 5.18358 -0.199162 5.30858 0.613335C5.31639 0.718804 5.56639 5.1641 5.62108 6.15238C5.65623 6.27738 6.1992 6.28519 6.24608 6.15238V0.636773C6.34764 -0.206975 7.99607 -0.199162 8.12107 0.593804ZM12.7773 11.7539L12.1914 18.9844C12.1445 19.5313 12.5781 20 13.125 20H15.3125C15.832 20 16.25 19.582 16.25 19.0625V0.937553C16.25 0.42193 15.832 5.58301e-05 15.3125 5.58301e-05C12.0898 5.58301e-05 6.66404 6.97269 12.7773 11.7539Z" fill="#F6A800"/>
</svg>
