<svg width="19" height="19" viewBox="0 0 19 19" fill="none" xmlns="http://www.w3.org/2000/svg">
<path d="M16.1907 10.9888C15.9852 8.39134 14.7392 6.7636 13.6399 5.3272C12.6221 3.99741 11.743 2.84907 11.743 1.15509C11.743 1.01903 11.6645 0.894661 11.54 0.832308C11.4151 0.769581 11.2651 0.779854 11.1515 0.85993C9.50065 2.0065 8.12321 3.93897 7.64204 5.78282C7.308 7.06652 7.2638 8.50965 7.2576 9.46277C5.73302 9.14672 5.38766 6.93331 5.38402 6.90919C5.36684 6.79438 5.29457 6.69448 5.18943 6.63991C5.0832 6.58607 4.95833 6.58215 4.85063 6.63389C4.77068 6.67145 2.8883 7.59977 2.77878 11.3063C2.7711 11.4296 2.77075 11.5533 2.77075 11.6769C2.77075 15.2779 5.78959 18.2077 9.49992 18.2077C9.50504 18.2081 9.5105 18.2088 9.51488 18.2077C9.51636 18.2077 9.51779 18.2077 9.51962 18.2077C13.2208 18.1974 16.2291 15.2715 16.2291 11.6769C16.2291 11.4959 16.1907 10.9888 16.1907 10.9888ZM9.49992 17.4821C8.26301 17.4821 7.25686 16.4418 7.25686 15.1631C7.25686 15.1195 7.25651 15.0756 7.25977 15.0217C7.27474 14.4824 7.38027 14.1143 7.49599 13.8695C7.71287 14.3216 8.10057 14.7372 8.73034 14.7372C8.93698 14.7372 9.10419 14.5749 9.10419 14.3744C9.10419 13.8578 9.11516 13.2618 9.24768 12.7239C9.36562 12.247 9.64743 11.7396 10.0045 11.3329C10.1633 11.8608 10.4729 12.2881 10.7752 12.7052C11.2078 13.3018 11.655 13.9187 11.7335 14.9707C11.7383 15.033 11.743 15.0958 11.743 15.1631C11.743 16.4418 10.7368 17.4821 9.49992 17.4821Z" fill="white"/>
</svg>
