<svg width="18" height="18" viewBox="0 0 18 18" fill="none" xmlns="http://www.w3.org/2000/svg">
<path d="M5.62491 12.6V11.7H1.12491L1.12491 12.6C1.12491 13.5942 2.13214 14.4 3.37491 14.4C4.61768 14.4 5.62491 13.5942 5.62491 12.6ZM14.6249 18C15.8677 18 16.8749 17.1942 16.8749 16.2V15.3H12.3749V16.2C12.3749 17.1942 13.3821 18 14.6249 18ZM10.1249 8.50894C10.1249 9.49078 10.5861 10.6509 11.2499 11.4545C11.8258 12.1517 12.3749 12.7066 12.3749 14.4H16.8749L17.4363 12.782C17.6923 12.0448 17.8976 11.2911 17.9654 10.5233C18.0466 9.60384 17.989 8.67825 17.7475 7.77881C16.9206 4.69969 15.0897 3.6 13.4999 3.6C11.2499 3.6 10.1249 5.96756 10.1249 8.50894ZM0.252689 4.17881C0.0111662 5.07825 -0.0468415 6.00384 0.0347208 6.92325C0.102572 7.69106 0.307884 8.44481 0.56347 9.18197L1.12491 10.8H5.62491C5.62491 9.10688 6.17405 8.55169 6.74991 7.85447C7.41365 7.05094 7.8749 5.89078 7.8749 4.90894C7.8749 2.36756 6.74991 0 4.49991 0C2.91015 0 1.07921 1.09969 0.252689 4.17881Z" fill="white"/>
</svg>
