<svg width="251" height="35" viewBox="0 0 251 35" fill="none" xmlns="http://www.w3.org/2000/svg">
<path d="M1.7417 3.5L84.2472 5.1L166.753 25.9L249.258 30.7" stroke="#F6A800"/>
<path d="M1.74172 6.5C2.42751 6.5 2.98344 5.15685 2.98344 3.5C2.98344 1.84315 2.42751 0.5 1.74172 0.5C1.05594 0.5 0.5 1.84315 0.5 3.5C0.5 5.15685 1.05594 6.5 1.74172 6.5Z" fill="white" stroke="#F6A800"/>
<path d="M84.2472 8.09998C84.933 8.09998 85.489 6.75683 85.489 5.09998C85.489 3.44312 84.933 2.09998 84.2472 2.09998C83.5615 2.09998 83.0055 3.44312 83.0055 5.09998C83.0055 6.75683 83.5615 8.09998 84.2472 8.09998Z" fill="white" stroke="#F6A800"/>
<path d="M166.753 28.9C167.439 28.9 167.994 27.5569 167.994 25.9C167.994 24.2432 167.439 22.9 166.753 22.9C166.067 22.9 165.511 24.2432 165.511 25.9C165.511 27.5569 166.067 28.9 166.753 28.9Z" fill="white" stroke="#F6A800"/>
<path d="M249.258 33.7C249.944 33.7 250.5 32.3569 250.5 30.7C250.5 29.0432 249.944 27.7 249.258 27.7C248.572 27.7 248.017 29.0432 248.017 30.7C248.017 32.3569 248.572 33.7 249.258 33.7Z" fill="white" stroke="#F6A800"/>
</svg>
