<svg width="19" height="19" viewBox="0 0 19 19" fill="none" xmlns="http://www.w3.org/2000/svg">
<path fill-rule="evenodd" clip-rule="evenodd" d="M1.58325 9.50462C1.58325 5.13499 5.13658 1.58337 9.49992 1.58337C13.8633 1.58337 17.4166 5.13499 17.4166 9.50462C17.4166 13.8651 13.8633 17.4167 9.49992 17.4167C5.13658 17.4167 1.58325 13.8651 1.58325 9.50462ZM12.4037 10.3058C12.4878 10.2218 12.5948 10.092 12.6177 10.0614C12.7399 9.90103 12.8011 9.70245 12.8011 9.50462C12.8011 9.28236 12.7323 9.07614 12.6024 8.90811C12.5918 8.89746 12.5709 8.87477 12.5437 8.8452C12.4929 8.78988 12.4199 8.71046 12.3502 8.64078C11.7236 7.96865 10.0883 6.86879 9.23246 6.53272C9.10256 6.48002 8.77397 6.36469 8.59821 6.35705C8.4301 6.35705 8.26963 6.39524 8.1168 6.47162C7.92576 6.57855 7.77292 6.74658 7.68887 6.94517C7.63538 7.08265 7.55132 7.4951 7.55132 7.50273C7.46726 7.95337 7.42141 8.68661 7.42141 9.49622C7.42141 10.2684 7.46726 10.9703 7.53604 11.4286C7.53793 11.4305 7.5445 11.4633 7.55471 11.5142C7.58576 11.669 7.65043 11.9915 7.71943 12.1237C7.88755 12.4444 8.21614 12.643 8.56765 12.643H8.59821C8.82746 12.6354 9.30888 12.4368 9.30888 12.4292C10.1189 12.0931 11.716 11.0467 12.3579 10.3517L12.4037 10.3058Z" fill="white"/>
</svg>
