<svg width="15" height="15" viewBox="0 0 15 15" fill="none" xmlns="http://www.w3.org/2000/svg">
<path d="M14.9991 8.90625C14.9991 12.2725 11.6423 15 7.49955 15C3.35677 15 0 12.2725 0 8.90625C0 5.85938 2.75104 3.33398 6.34577 2.88574V1.875H5.33622C5.09825 1.875 4.90355 1.7168 4.90355 1.52344V0.351562C4.90355 0.158203 5.09825 0 5.33622 0H9.66288C9.90085 0 10.0955 0.158203 10.0955 0.351562V1.52344C10.0955 1.7168 9.90085 1.875 9.66288 1.875H8.65333V2.88574C10.0054 3.05566 11.2385 3.51856 12.2481 4.19238L13.2396 3.38672C13.409 3.24902 13.6831 3.24902 13.8525 3.38672L14.8729 4.21582C15.0424 4.35352 15.0424 4.57617 14.8729 4.71387L13.8129 5.5752L13.7912 5.59277C14.5556 6.54199 14.9991 7.68164 14.9991 8.90625ZM8.65333 9.96094V5.52246C8.65333 5.3291 8.45863 5.1709 8.22066 5.1709H6.77844C6.54047 5.1709 6.34577 5.3291 6.34577 5.52246V9.96094C6.34577 10.1543 6.54047 10.3125 6.77844 10.3125H8.22066C8.45863 10.3125 8.65333 10.1543 8.65333 9.96094Z" fill="#4163DF"/>
</svg>
