<svg width="6" height="6" viewBox="0 0 6 6" fill="none" xmlns="http://www.w3.org/2000/svg">
<g clip-path="url(#clip0_0_2202)">
<path d="M3 0C1.34323 0 0 1.34323 0 3C0 4.65677 1.34323 6 3 6C4.65677 6 6 4.65677 6 3C6 1.34323 4.65677 0 3 0ZM3 5.3636C1.69665 5.3636 0.636402 4.30335 0.636402 3C0.636402 1.69665 1.69665 0.636402 3 0.636402C4.30335 0.636402 5.3636 1.69665 5.3636 3C5.3636 4.30335 4.30335 5.3636 3 5.3636Z" fill="white"/>
<path d="M3.3182 2.86805V1.39796C3.3182 1.22232 3.17565 1.07976 3 1.07976C2.82435 1.07976 2.6818 1.22232 2.6818 1.39796V3C2.6818 3.08443 2.71532 3.16546 2.77514 3.22486L3.49936 3.94909C3.56131 4.01103 3.64277 4.04243 3.72423 4.04243C3.80568 4.04243 3.88714 4.01146 3.94909 3.94909C4.0734 3.82478 4.0734 3.62325 3.94909 3.49894L3.3182 2.86805Z" fill="white"/>
</g>
<defs>
<clipPath id="clip0_0_2202">
<rect width="6" height="6" fill="white"/>
</clipPath>
</defs>
</svg>
