<svg width="6" height="6" viewBox="0 0 6 6" fill="none" xmlns="http://www.w3.org/2000/svg">
<g clip-path="url(#clip0_0_2206)">
<path d="M3.00042 5.99958C2.39619 5.99958 1.66704 5.7392 1.09711 5.31955C0.389555 4.79881 0 4.09203 0 3.32961C0 2.73199 0.206634 2.0303 0.566549 1.4038C0.948059 0.740345 1.44474 0.253159 1.96429 0.0327144C2.10064 -0.0250513 2.24375 -0.0055129 2.34707 0.0849584C2.52999 0.245088 2.47114 0.462135 2.39661 0.736947C2.18151 1.53165 2.24079 1.84257 2.63119 1.96914C3.09315 2.11908 3.3904 1.75507 3.75963 1.22456C3.87735 1.05508 3.97939 0.90897 4.0916 0.802783C4.16782 0.730576 4.44008 0.510131 4.7386 0.70679C5.51687 1.21904 6 2.22441 6 3.33003C6 4.95979 4.22287 6 2.99958 6L3.00042 5.99958ZM1.68313 0.987123C1.10261 1.54779 0.635145 2.53236 0.635145 3.32961C0.635145 4.03979 1.09076 4.52443 1.47269 4.80561C1.93169 5.14371 2.53126 5.36203 3 5.36203C3.46874 5.36203 4.06831 5.14371 4.52731 4.80561C4.90925 4.52443 5.36486 4.03979 5.36486 3.32961C5.36486 2.48478 5.03119 1.72321 4.48709 1.30781C4.42611 1.37917 4.34439 1.4964 4.28003 1.58899C3.9434 2.07235 3.38024 2.8815 2.43557 2.57526C1.95836 2.42065 1.68398 2.07405 1.64206 1.57285C1.62555 1.37449 1.64799 1.17146 1.68313 0.987123Z" fill="white"/>
</g>
<defs>
<clipPath id="clip0_0_2206">
<rect width="6" height="6" fill="white"/>
</clipPath>
</defs>
</svg>
