<svg width="17" height="17" viewBox="0 0 17 17" fill="none" xmlns="http://www.w3.org/2000/svg">
<path d="M12.75 1.13891C14.0321 1.87914 15.0985 2.94136 15.8439 4.22042C16.5892 5.49949 16.9876 6.95103 16.9996 8.43137C17.0115 9.9117 16.6366 11.3695 15.9121 12.6604C15.1875 13.9514 14.1383 15.0307 12.8684 15.7915C11.5985 16.5524 10.1519 16.9684 8.67181 16.9983C7.19172 17.0283 5.72948 16.6711 4.42983 15.9623C3.13018 15.2535 2.0382 14.2175 1.26197 12.9569C0.485744 11.6964 0.052198 10.2549 0.00425011 8.77533L0 8.49993L0.00425011 8.22453C0.0518529 6.75657 0.479017 5.32599 1.2441 4.07226C2.00918 2.81854 3.08606 1.78445 4.36977 1.07081C5.65347 0.357175 7.10019 -0.0116542 8.56888 0.00028071C10.0376 0.0122156 11.4781 0.404508 12.75 1.13891ZM11.651 6.19897C11.5046 6.05262 11.3099 5.96471 11.1033 5.95172C10.8967 5.93873 10.6925 6.00156 10.529 6.12842L10.4491 6.19897L7.65002 8.99718L6.55097 7.89898L6.47107 7.82843C6.30751 7.70165 6.10333 7.6389 5.89681 7.65193C5.69029 7.66496 5.49561 7.75288 5.34929 7.8992C5.20296 8.04552 5.11504 8.2402 5.10201 8.44672C5.08898 8.65325 5.15174 8.85743 5.27851 9.02098L5.34906 9.10088L7.04907 10.8009L7.12897 10.8714C7.27804 10.9871 7.46135 11.0499 7.65002 11.0499C7.83869 11.0499 8.022 10.9871 8.17107 10.8714L8.25097 10.8009L11.651 7.40088L11.7215 7.32098C11.8484 7.15743 11.9112 6.95322 11.8982 6.74665C11.8852 6.54007 11.7973 6.34534 11.651 6.19897Z" fill="#6CF401"/>
</svg>
