<svg width="20" height="20" viewBox="0 0 20 20" fill="none" xmlns="http://www.w3.org/2000/svg">
<g clip-path="url(#clip0_0_1745)">
<path d="M3.6189 6.27368L4.16634 5.71579C4.77694 5.10526 5.7876 5.10526 6.41927 5.75789L6.44032 5.78947C6.95618 6.31579 7.64048 6.56842 8.38795 6.64211C9.40913 6.73684 10.3987 7.28421 11.0515 8.27368C11.7673 9.41053 11.7568 10.9263 11.0093 12.0526C9.74602 14 7.10357 14.2105 5.55599 12.6316C4.96644 12.0526 4.62956 11.3053 4.54534 10.5263C4.46111 9.7579 4.15581 9.03158 3.6189 8.49474C3.00829 7.89474 3.00829 6.88421 3.6189 6.27368ZM8.04053 14.7368C6.80879 14.7368 5.66127 14.2632 4.80853 13.3895C4.07159 12.6316 3.60837 11.6842 3.49257 10.6526C3.46098 10.3368 3.36623 9.92632 3.11357 9.54737C2.48191 10.4211 2.10291 11.4737 2.10291 12.6316C2.10291 14.3579 2.94512 15.8842 4.24003 16.8421H17.8945V15.7895C17.8945 12 15.3783 8.78947 11.9358 7.73684C12.8727 9.21053 12.8517 11.1789 11.8937 12.6316C11.0515 13.9474 9.59863 14.7368 8.04053 14.7368ZM13.4518 5.85263H14.7888C15.7047 5.85263 16.5048 6.49474 16.5048 7.64211V8.42105H17.8208V7.36842C17.8208 5.78947 16.4206 4.58947 14.7888 4.58947H13.4518C12.578 4.58947 11.8305 3.72632 11.8305 2.84211C11.8305 1.95789 12.578 1.30526 13.4518 1.30526V0C11.8305 0 10.5251 1.30526 10.5251 2.92632C10.5251 4.54737 11.8305 5.85263 13.4518 5.85263ZM2.62929 5.84211C2.69246 5.73684 2.77668 5.63158 2.87143 5.52632L3.41887 4.97895C3.51362 4.88421 3.6189 4.81053 3.72417 4.73684L2.23977 3.23158C2.38716 2.94737 2.33452 2.57895 2.10291 2.33684C1.78708 2.03158 1.28175 2.03158 0.976444 2.33684C0.829057 2.48421 0.755363 2.66316 0.744835 2.85263C0.555336 2.86316 0.376365 2.93684 0.228978 3.08421C-0.0763258 3.38947 -0.0763258 3.89474 0.228978 4.21053C0.471115 4.44211 0.829056 4.49474 1.12383 4.34737L2.62929 5.84211ZM17.2523 2.51579C17.7892 1.97895 18.1261 1.25263 18.1261 0.442105H16.8101C16.8101 1.31579 16.0732 2.05263 15.1994 2.05263V3.35789C17.1575 3.35789 18.6946 4.95789 18.6946 6.91579V9.47368H20V6.91579C20 4.96842 18.8841 3.29474 17.2523 2.51579ZM3.15568 20H17.8945C19.063 20 20 19.0632 20 17.8947H1.05014C1.05014 19.0632 1.99763 20 3.15568 20Z" fill="#FDEFD2"/>
</g>
<defs>
<clipPath id="clip0_0_1745">
<rect width="20" height="20" fill="white"/>
</clipPath>
</defs>
</svg>
