<svg width="25" height="25" viewBox="0 0 25 25" fill="none" xmlns="http://www.w3.org/2000/svg">
<path d="M12.5 25C19.3552 25 25 19.3552 25 12.5C25 5.65676 19.3432 0 12.488 0C5.64477 0 0 5.65676 0 12.5C0 19.3552 5.64477 25 12.5 25ZM6.60355 14.1419C6.0163 14.1419 5.56088 13.6745 5.56088 13.0992C5.56088 12.512 6.0163 12.0566 6.60355 12.0566H11.4573V5.41707C11.4573 4.82982 11.9128 4.3744 12.488 4.3744C13.0753 4.3744 13.5307 4.82982 13.5307 5.41707V13.0992C13.5307 13.6745 13.0753 14.1419 12.488 14.1419H6.60355Z" fill="#3A82F7"/>
</svg>
