<svg width="20" height="20" viewBox="0 0 20 20" fill="none" xmlns="http://www.w3.org/2000/svg">
<path d="M19.8906 15.7895C19.8906 16.9062 19.4715 17.9771 18.7254 18.7668C17.9794 19.5564 16.9675 20 15.9125 20H12.9289C11.8738 20 10.862 19.5564 10.1159 18.7668C9.36989 17.9771 8.95077 16.9062 8.95077 15.7895V13.6842H15.7036L18.4485 8.66316L20 9.61053L17.7723 13.6842H19.8906V15.7895ZM6.96171 20H0C0 16.8421 -8.89179e-08 13.6842 0.328195 10.3474C0.596718 7.68421 1.07409 4.90526 1.59125 2.10526H0.99453V0H1.98906H4.97265H5.96718V2.10526H5.37046C5.88762 4.90526 6.36499 7.68421 6.63352 10.3474C6.96171 13.6842 6.96171 16.8421 6.96171 20Z" fill="white"/>
</svg>
