<svg width="20" height="20" viewBox="0 0 20 20" fill="none" xmlns="http://www.w3.org/2000/svg">
<path d="M6.2499 14V13H1.2499V14C1.2499 15.1047 2.36904 16 3.7499 16C5.13076 16 6.2499 15.1047 6.2499 14ZM16.2499 20C17.6307 20 18.7499 19.1047 18.7499 18V17L13.7499 17V18C13.7499 19.1047 14.869 20 16.2499 20ZM11.2499 9.45438C11.2499 10.5453 11.7624 11.8344 12.4999 12.7272C13.1397 13.5019 13.7499 14.1184 13.7499 16L18.7499 16L19.3737 14.2022C19.6581 13.3831 19.8862 12.5456 19.9616 11.6925C20.0518 10.6709 19.9878 9.6425 19.7194 8.64312C18.8007 5.22187 16.7663 4 14.9999 4C12.4999 4 11.2499 6.63062 11.2499 9.45438ZM0.280766 4.64312C0.0124069 5.6425 -0.0520462 6.67094 0.0385787 7.6925C0.113969 8.54562 0.342094 9.38313 0.626078 10.2022L1.2499 12H6.2499C6.2499 10.1187 6.86005 9.50187 7.4999 8.72719C8.23739 7.83437 8.74989 6.54531 8.74989 5.45438C8.74989 2.63062 7.4999 0 4.9999 0C3.2335 0 1.19912 1.22187 0.280766 4.64312Z" fill="#AC0909"/>
</svg>
