<svg width="25" height="24" viewBox="0 0 25 24" fill="none" xmlns="http://www.w3.org/2000/svg">
<path d="M21.6866 20.1821L18.424 16.9195C19.6686 15.3499 20.4136 13.3659 20.4136 11.2074C20.4136 6.12261 16.2924 2 11.2077 2C6.12286 2 2.00024 6.12261 2.00024 11.2074C2.00024 16.2922 6.12286 20.4148 11.2077 20.4148C13.3662 20.4148 15.3501 19.6698 16.9197 18.4252L20.1823 21.6878C20.3895 21.895 20.662 22 20.9345 22C21.2069 22 21.4794 21.8964 21.6866 21.6878C22.1024 21.272 22.1024 20.5979 21.6866 20.1821ZM4.12896 11.2074C4.12896 7.30476 7.30359 4.12872 11.2077 4.12872C15.1117 4.12872 18.2863 7.30334 18.2863 11.2074C18.2863 15.1115 15.1117 18.2861 11.2077 18.2861C7.30359 18.2861 4.12896 15.1101 4.12896 11.2074Z" fill="#9A9C95"/>
</svg>
