<svg width="30" height="17" viewBox="0 0 30 17" fill="none" xmlns="http://www.w3.org/2000/svg">
<path d="M7.37959 17C9.01711 17 10.1375 15.858 10.1375 14.2636V2.74715C10.1375 1.14195 9.01711 0 7.37959 0C5.74208 0 4.63245 1.14195 4.63245 2.74715V14.2636C4.63245 15.858 5.74208 17 7.37959 17ZM22.1926 17C23.8302 17 24.9506 15.858 24.9506 14.2636V2.74715C24.9506 1.14195 23.8302 0 22.1926 0C20.5551 0 19.4455 1.14195 19.4455 2.74715V14.2636C19.4455 15.858 20.5551 17 22.1926 17ZM1.74525 14.4037C2.7256 14.4037 3.49049 13.6388 3.49049 12.68V4.32003C3.49049 3.33967 2.7256 2.58555 1.74525 2.58555C0.764892 2.58555 0 3.33967 0 4.32003V12.68C0 13.6388 0.764892 14.4037 1.74525 14.4037ZM27.7516 14.4037C28.7319 14.4037 29.4968 13.6388 29.4968 12.68V4.32003C29.4968 3.33967 28.7319 2.58555 27.7516 2.58555C26.7712 2.58555 26.0063 3.33967 26.0063 4.32003V12.68C26.0063 13.6388 26.7712 14.4037 27.7516 14.4037ZM11.3441 10.8593H18.2281V6.14068H11.3441V10.8593Z" fill="#81CFFA"/>
</svg>
