<svg width="29" height="29" viewBox="0 0 29 29" fill="none" xmlns="http://www.w3.org/2000/svg">
<path d="M9.42737 3.25151C9.19652 3.30135 8.90409 3.50069 8.76558 3.71664C8.48855 4.16515 8.61167 4.49738 9.64284 6.14193C9.96605 6.65689 10.4278 7.50408 10.6432 8.01904C11.0742 9.04895 11.3358 10.9427 11.028 10.9427C10.9357 10.9427 10.8587 10.8762 10.8587 10.8098C10.8587 10.5108 9.5505 9.28152 9.058 9.09879C8.27308 8.833 8.14995 9.04895 8.04222 10.843C7.96527 12.1055 7.82675 12.7533 7.31886 14.1985C6.50316 16.5242 6.30308 17.9528 6.53394 19.7468C6.73402 21.408 7.22652 22.4379 8.31925 23.5509C9.78136 25.0459 11.5975 25.7768 13.9368 25.7768C16.5994 25.81 18.4463 25.0293 20.1392 23.2186C21.8322 21.3914 22.5556 19.3149 22.5556 16.2418C22.5556 10.0955 18.7695 5.06217 13.0134 3.58374C11.936 3.31796 10.1353 3.15184 9.42737 3.25151ZM15.3989 14.0657C19.0003 17.0059 18.2616 22.7369 14.2754 22.7369C12.6902 22.7369 11.6744 21.9728 11.305 20.5109C11.0742 19.6305 11.2589 18.8664 12.1053 17.172L12.7517 15.8763L13.075 16.2916C13.2596 16.5242 13.4751 16.8564 13.5675 17.0225C13.6752 17.1886 13.7983 17.2883 13.8445 17.2385C13.9984 17.0723 14.2446 15.2783 14.2446 14.2982C14.2446 13.2517 14.3678 13.2185 15.3989 14.0657Z" fill="#EC6330"/>
</svg>
