<svg width="37" height="57" viewBox="0 0 37 57" fill="none" xmlns="http://www.w3.org/2000/svg">
<path d="M20.5254 37.8406C25.13 37.2367 29.3405 34.8285 32.2997 31.1063C35.2589 27.384 36.7444 22.6276 36.4538 17.8053C36.1631 12.983 34.1182 8.45719 30.7353 5.14928C27.3524 1.84138 22.8858 0 18.2448 0C13.6038 0 9.13718 1.84138 5.75428 5.14928C2.37138 8.45719 0.326471 12.983 0.0358359 17.8053C-0.254799 22.6276 1.23068 27.384 4.18989 31.1063C7.1491 34.8285 11.3596 37.2367 15.9642 37.8406V42.7539H4.56122V47.5026H15.9642V57H20.5254V47.5026H31.9284V42.7539H20.5254V37.8406ZM4.56122 19.0104C4.56122 16.1928 5.36375 13.4384 6.86732 11.0957C8.37089 8.7529 10.508 6.92694 13.0083 5.84868C15.5087 4.77043 18.26 4.48831 20.9143 5.038C23.5687 5.58769 26.0069 6.9445 27.9206 8.93685C29.8342 10.9292 31.1375 13.4676 31.6655 16.2311C32.1934 18.9946 31.9225 21.859 30.8868 24.4621C29.8511 27.0653 28.0972 29.2902 25.847 30.8556C23.5967 32.421 20.9512 33.2565 18.2448 33.2565C14.6169 33.2523 11.1388 31.7501 8.57345 29.0793C6.00814 26.4085 4.5652 22.7874 4.56122 19.0104Z" fill="white"/>
</svg>
