<svg width="20" height="20" viewBox="0 0 20 20" fill="none" xmlns="http://www.w3.org/2000/svg">
<path d="M19.7656 6.32812H13.6719V0.234375H14.1413V5.52799L19.6003 0.0690104L19.9323 0.400391L14.472 5.85937H19.7656V6.32812ZM13.4896 10C13.4896 8.07552 11.9238 6.51042 10 6.51042C8.07552 6.51042 6.51042 8.07552 6.51042 10C6.51042 11.9238 8.07552 13.4896 10 13.4896C11.9238 13.4896 13.4896 11.9238 13.4896 10ZM13.0208 10C13.0208 11.666 11.666 13.0208 10 13.0208C8.33398 13.0208 6.97917 11.666 6.97917 10C6.97917 8.33398 8.33463 6.97917 10 6.97917C11.6654 6.97917 13.0208 8.33398 13.0208 10ZM20 10C20 9.11914 19.8757 8.222 19.6296 7.33333L19.1784 7.45768C19.4121 8.30599 19.5312 9.16081 19.5312 9.99935C19.5312 15.2546 15.2559 19.5306 10 19.5306C4.74414 19.5312 0.46875 15.2552 0.46875 10C0.46875 4.74414 4.74414 0.46875 10 0.46875C10.8379 0.46875 11.6934 0.587891 12.5417 0.822266L12.666 0.370443C11.7767 0.125 10.8802 0 10 0C4.48568 0 0 4.48568 0 10C0 15.5143 4.48568 20 10 20C15.5143 20 20 15.5143 20 10ZM16.7448 10C16.7448 9.06706 16.5547 8.15885 16.1797 7.30208L15.75 7.48958C16.099 8.28776 16.276 9.13216 16.276 10C16.276 13.4603 13.4609 16.276 10 16.276C6.53906 16.276 3.72396 13.4603 3.72396 10C3.72396 6.53971 6.53971 3.72396 10 3.72396C10.8678 3.72396 11.7129 3.90104 12.5098 4.25L12.6979 3.82096C11.8405 3.44531 10.9336 3.25521 10 3.25521C6.28125 3.25521 3.25521 6.28125 3.25521 10C3.25521 13.7194 6.2806 16.7448 10 16.7448C13.7194 16.7448 16.7448 13.7194 16.7448 10ZM10 9.34896C9.64062 9.34896 9.34896 9.64062 9.34896 10C9.34896 10.3594 9.64062 10.651 10 10.651C10.3594 10.651 10.651 10.3594 10.651 10C10.651 9.64062 10.3594 9.34896 10 9.34896Z" fill="#E4E4E4"/>
</svg>
