<svg width="28" height="28" viewBox="0 0 28 28" fill="none" xmlns="http://www.w3.org/2000/svg">
<path d="M14 28C21.6588 28 28 21.6588 28 14C28 6.3549 21.6451 0 13.9863 0C6.34118 0 0 6.3549 0 14C0 21.6588 6.3549 28 14 28ZM6.32745 8.72941C6.32745 7.94706 6.84902 7.42549 7.68627 7.42549H9.55294C9.71765 6.68431 10.2804 6.27255 11.1588 6.27255H16.8412C17.7196 6.27255 18.2824 6.68431 18.4471 7.42549H20.3137C21.151 7.42549 21.6725 7.94706 21.6725 8.72941C21.6725 11.6255 19.6137 13.5196 16.8 14.4118C16.3882 14.9333 15.9078 15.3725 15.4275 15.6471V18.4882H16.402C17.4451 18.4882 18.049 19.1196 18.049 20.1353V21.3157C18.049 21.6725 17.7608 21.9745 17.3765 21.9745H10.6235C10.2392 21.9745 9.95098 21.6725 9.95098 21.3157V20.1353C9.95098 19.1196 10.5549 18.4882 11.598 18.4882H12.5725V15.6471C12.0922 15.3725 11.6118 14.9333 11.2 14.4118C8.38627 13.5196 6.34118 11.6255 6.32745 8.72941ZM9.51176 8.77059H7.74118C7.67255 8.77059 7.61765 8.82549 7.61765 8.89412C7.63137 10.5549 8.83922 11.8314 10.0333 12.5863C9.6902 11.7627 9.51176 10.8843 9.51176 10.0059V8.77059ZM18.502 8.77059V10.0059C18.502 10.8843 18.3098 11.7627 17.9804 12.5863C19.1745 11.8314 20.3686 10.5549 20.3824 8.89412C20.3824 8.82549 20.3275 8.77059 20.2588 8.77059H18.502Z" fill="#EC6330"/>
</svg>
