<svg width="338" height="158" viewBox="0 0 338 158" fill="none" xmlns="http://www.w3.org/2000/svg">
<path d="M0 121.858H8.54879V157.765H0V121.858Z" fill="#4163DF"/>
<path d="M11.3604 110.381H19.9092V157.765H11.3604V110.381Z" fill="#4163DF"/>
<path d="M22.7208 82.521H31.2696V157.765H22.7208V82.521Z" fill="#4163DF"/>
<path d="M34.0812 81.1585H42.63V157.765H34.0812V81.1585Z" fill="#4163DF"/>
<path d="M45.4416 125.112H53.9903V157.765H45.4416V125.112Z" fill="#4163DF"/>
<path d="M56.8019 52.0645H65.3507V157.765H56.8019V52.0645Z" fill="#4163DF"/>
<path d="M68.1623 90.6801H76.7111V157.765H68.1623V90.6801Z" fill="#4163DF"/>
<path d="M79.5227 151.401H88.0715V157.765H79.5227V151.401Z" fill="#4163DF"/>
<path d="M90.8831 36.4676H99.4319V157.765H90.8831V36.4676Z" fill="#4163DF"/>
<path d="M102.243 0H110.792V157.765H102.243V0Z" fill="#4163DF"/>
<path d="M113.604 113.859H122.153V157.765H113.604V113.859Z" fill="#4163DF"/>
<path d="M124.964 72.0857H133.513V157.765H124.964V72.0857Z" fill="#4163DF"/>
<path d="M136.325 89.6382H144.873V157.765H136.325V89.6382Z" fill="#4163DF"/>
<path d="M147.685 47.4159H156.234V157.765H147.685V47.4159Z" fill="#4163DF"/>
<path d="M159.045 6.60426H167.594V157.765H159.045V6.60426Z" fill="#4163DF"/>
<path d="M170.406 105.604H178.955V157.765H170.406V105.604Z" fill="#4163DF"/>
<path d="M181.766 34.7685H190.315V157.765H181.766V34.7685Z" fill="#4163DF"/>
<path d="M193.127 62.3396H201.675V157.765H193.127V62.3396Z" fill="#4163DF"/>
<path d="M204.487 135.804H213.036V157.765H204.487V135.804Z" fill="#4163DF"/>
<path d="M215.847 20.4379H224.396V157.765H215.847V20.4379Z" fill="#4163DF"/>
<path d="M227.208 106.87H235.757V157.765H227.208V106.87Z" fill="#4163DF"/>
<path d="M238.568 75.9809H247.117V157.765H238.568V75.9809Z" fill="#4163DF"/>
<path d="M249.929 48.6823H258.477V157.765H249.929V48.6823Z" fill="#4163DF"/>
<path d="M261.289 91.9305H269.838V157.765H261.289V91.9305Z" fill="#4163DF"/>
<path d="M272.649 124.246H281.198V157.765H272.649V124.246Z" fill="#4163DF"/>
<path d="M284.01 91.69H292.558V157.765H284.01V91.69Z" fill="#4163DF"/>
<path d="M295.37 137.15H303.919V157.765H295.37V137.15Z" fill="#4163DF"/>
<path d="M306.73 26.7055H315.279V157.765H306.73V26.7055Z" fill="#4163DF"/>
<path d="M318.091 66.892H326.64V157.765H318.091V66.892Z" fill="#4163DF"/>
<path d="M329.451 134.089H338V157.765H329.451V134.089Z" fill="#4163DF"/>
</svg>
